<svg xmlns="http://www.w3.org/2000/svg" viewBox="0 0 649.1 167.02"><defs><style>.cls-1,.cls-3{fill:#50205e;}.cls-2{fill:#fff;}.cls-2,.cls-3{fill-rule:evenodd;}</style></defs><title>Asset 8</title><g id="Layer_2" data-name="Layer 2"><g id="Layer_1-2" data-name="Layer 1"><rect class="cls-1" x="456.62" width="192.47" height="131.36" rx="12"/><polygon class="cls-1" points="488.48 123.98 476.89 167.02 526.61 123.98 488.48 123.98"/><path class="cls-2" d="M472.72,26.81h17.64V58.54H521V26.81h17.63c0,12.36-1.12,40.37.74,58,.55,5.28,9.49,6.9,13.65,6.9s13.09-1.62,13.65-6.9c1.85-17.66.73-45.67.73-58h5.27c12.44,0,30.16-.32,37.3,0,10.46.47,21,9.18,20.93,20.19-.14,14.61-9.32,14.29-8.91,17.9-.41,3.62,10.83,3.3,11,17.91.1,11-10.47,20.93-20.93,21.4-9.53.42-12.62,0-22.66,0V88.66h22.24c2.87,0,5.09-4.72,4.94-8.42-.55-13.83-21.52-4.16-21-15.34-.56-11.17,18.34-1.5,18.9-15.33.15-3.7-2.06-7.41-4.95-7.39l-24.5.12v28c0,15.65.19,22.78-5.71,28.55-7.67,7.51-16.35,6.7-26.31,6.7s-18.65.81-26.32-6.7C521.13,93.3,521,86.58,521,72.45H490.36v32.9H472.72Z"/><path class="cls-1" d="M175.18,105.17V92.35c0-15.51,0-31,.08-46.53,0-2.2,1.52-6,4.4-6.5,2.46-.44,5-1.08,7.42-.84,4.47.43,7.34,3,7.29,8-.09,9.27-.16,18.54-.09,27.81a10.66,10.66,0,0,0,1.22,5.29,16.76,16.76,0,0,0,8.6,7.3,30.62,30.62,0,0,0,14.19,1.67c4.37-.55,8.42-1.65,11.88-4.44,2.53-2,4.53-4.52,4.58-7.89.14-7.88,0-15.76.13-23.64.05-3.38-.5-6.81,1.24-10.07a6.36,6.36,0,0,1,4.44-3.46,21.76,21.76,0,0,1,6-.44c4.27.3,7.91,3.07,7.88,8-.08,17.26-.08,34.52-.11,51.79v7.11h16.88c0-.43.07-.66.07-.88q0-29.13.09-58.27a15.53,15.53,0,0,0-2.77-9.47c-5.08-7-12.39-9.47-20.56-10a72.9,72.9,0,0,0-10,.37,23.54,23.54,0,0,0-13.61,5.61c-3.39,2.86-5.93,6.31-6,11-.09,9.79-.12,19.58-.18,29.37,0,2.44-1,3.45-3.27,3.47-2.81,0-3.86-.86-3.86-3.43,0-9.12-.09-18.24.08-27.36.13-7.19-3.56-11.94-9.31-15.41-4.71-2.84-9.95-3.75-15.41-3.87-6.06-.13-12,.33-17.49,3.12-6.82,3.46-10.78,8.67-10.74,16.68.1,16,0,32,0,48.05v10.68Zm111.07.57c4.94,0,9.77,0,14.6,0,1.35,0,1.75-.41,1.74-1.72,0-4.61,0-9.21,0-13.81,0-14.5-.05-29,.09-43.51,0-3.57,2-6.65,5.57-7.46a16.74,16.74,0,0,1,8.55.21,6.51,6.51,0,0,1,4.77,6.11c0,9.33.17,18.67-.07,28-.17,6.69,4.46,11.5,9.66,13.59a28.25,28.25,0,0,0,14,1.79,25.69,25.69,0,0,0,10.16-3c4.65-2.67,7.07-6.42,7-12-.19-9,0-18.1,0-27.14a7.17,7.17,0,0,1,5.85-7.35,20.23,20.23,0,0,1,6.25-.35,11.7,11.7,0,0,1,4.65,1.9c2.53,1.6,2.49,4.27,2.48,6.92,0,18.76,0,37.52-.13,56.27,0,1.43.45,1.84,1.81,1.82q6.64-.07,13.3,0c1.23,0,1.66-.34,1.65-1.62,0-4.64.08-9.28.09-13.92q0-22.29,0-44.56a15.83,15.83,0,0,0-5.06-11.68c-4.71-4.65-10.63-6.55-17-6.92a71.24,71.24,0,0,0-13.2.71,21.92,21.92,0,0,0-11.36,5.12,16.27,16.27,0,0,0-6.11,14.38c.28,4.08.07,8.19.06,12.3,0,4.55,0,9.1-.08,13.65,0,2.83-1.14,3.68-4.38,3.58-1.94,0-2.72-1.1-2.72-3.57,0-7.87,0-15.74-.06-23.61,0-2.84.17-5.8-.55-8.49-1.81-6.78-7.06-10.36-13.28-12.59s-12.4-2.19-18.74-1.41c-5.71.7-10.84,2.7-14.91,6.92-2.77,2.87-4.66,6.13-4.65,10.34,0,14.84,0,29.69-.07,44.53C286.24,94.64,286.25,100.06,286.25,105.74Zm-237.88-.46c7.52-.45,15-.38,22.34-1.48a70,70,0,0,0,24.57-8.25c5.65-3.23,10.54-7.26,13.74-13,4.94-8.88,5.44-18.25,2.54-27.84-2.44-8.08-7.81-14-15-18.13a80.46,80.46,0,0,0-13.47-6,70.87,70.87,0,0,0-22.81-4.25c-4.89-.09-9.78-.07-14.67-.16-5.22-.09-10.31.5-14.81,3.36C27,32,24.28,35.24,24.34,40.19s0,9.67,0,14.51c0,11.64,0,23.28-.09,34.91a3.57,3.57,0,0,1-.71,2.46,3.91,3.91,0,0,1-4.8.47,4.22,4.22,0,0,1-1.54-3c-.15-5.8-.07-11.6-.07-17.41,0-10.36,0-20.73.07-31.1,0-1.36-.44-1.73-1.75-1.71-4.36.05-8.72,0-13.09,0-.71,0-1.41.07-2.08.11a4,4,0,0,0-.17.68Q0,65.51,0,91c0,5.65,3.38,9.54,8.05,11.58a26.94,26.94,0,0,0,13,2.36c4.6-.32,9-.93,13.06-3.18,4.26-2.38,7.09-5.8,7.1-11q0-24.57.07-49.15c0-2.61.84-3.58,3.48-3.59,8.5,0,17-.4,25.39,1.69,8.19,2,16,4.75,21.51,11.61a19.06,19.06,0,0,1,3,4.79A24.86,24.86,0,0,1,96,70.35a21.92,21.92,0,0,1-5.32,10.82c-4.08,4.39-9.23,6.84-14.81,8.76A64.83,64.83,0,0,1,57.53,93.2c-3,.14-6.06,0-9.16,0Zm95.17-78.69H127.11c0,.37,0,.59,0,.81q-.08,20-.14,39.9c0,12.06,0,24.12-.1,36.18,0,1.3.43,1.65,1.65,1.64q6.73-.06,13.47,0c1.1,0,1.47-.33,1.47-1.44,0-10.94.06-21.88.09-32.82,0-8.47,0-16.94,0-25.4Z"/><path class="cls-3" d="M175.18,105.17h-17V94.49c0-16,.13-32,0-48,0-8,3.92-13.22,10.74-16.68,5.51-2.79,11.43-3.25,17.49-3.12,5.46.12,10.7,1,15.41,3.87,5.75,3.47,9.44,8.22,9.31,15.41-.17,9.12-.08,18.24-.08,27.36,0,2.57,1,3.46,3.86,3.43,2.3,0,3.26-1,3.27-3.47.06-9.79.09-19.58.18-29.37,0-4.69,2.58-8.14,6-11A23.54,23.54,0,0,1,238,27.26a72.9,72.9,0,0,1,10-.37c8.17.49,15.48,3,20.56,10a15.53,15.53,0,0,1,2.77,9.47q0,29.15-.09,58.27c0,.22,0,.45-.07.88H254.3V98.36c0-17.27,0-34.53.11-51.79,0-4.89-3.61-7.66-7.88-8a21.76,21.76,0,0,0-6,.44,6.36,6.36,0,0,0-4.44,3.46c-1.74,3.26-1.19,6.69-1.24,10.07-.12,7.88,0,15.76-.13,23.64-.05,3.37-2.05,5.86-4.58,7.89-3.46,2.79-7.51,3.89-11.88,4.44a30.62,30.62,0,0,1-14.19-1.67,16.76,16.76,0,0,1-8.6-7.3,10.66,10.66,0,0,1-1.22-5.29c-.07-9.27,0-18.54.09-27.81,0-5-2.82-7.57-7.29-8-2.43-.24-5,.4-7.42.84-2.88.51-4.39,4.3-4.4,6.5-.1,15.51-.07,31-.08,46.53Z"/><path class="cls-3" d="M286.25,105.74c0-5.68,0-11.1,0-16.53,0-14.84.1-29.69.07-44.53,0-4.21,1.88-7.47,4.65-10.34,4.07-4.22,9.2-6.22,14.91-6.92,6.34-.78,12.65-.77,18.74,1.41s11.47,5.81,13.28,12.59c.72,2.69.52,5.65.55,8.49.07,7.87.05,15.74.06,23.61,0,2.47.78,3.52,2.72,3.57,3.24.1,4.34-.75,4.38-3.58.07-4.55.07-9.1.08-13.65,0-4.11.22-8.22-.06-12.3a16.27,16.27,0,0,1,6.11-14.38,21.92,21.92,0,0,1,11.36-5.12,71.24,71.24,0,0,1,13.2-.71c6.34.37,12.26,2.27,17,6.92A15.83,15.83,0,0,1,398.33,46q0,22.27,0,44.56c0,4.64-.12,9.28-.09,13.92,0,1.28-.42,1.64-1.65,1.62q-6.65-.09-13.3,0c-1.36,0-1.81-.39-1.81-1.82.08-18.75.08-37.51.13-56.27,0-2.65.05-5.32-2.48-6.92a11.7,11.7,0,0,0-4.65-1.9,20.23,20.23,0,0,0-6.25.35,7.17,7.17,0,0,0-5.85,7.35c-.05,9-.2,18.1,0,27.14.12,5.57-2.3,9.32-7,12a25.69,25.69,0,0,1-10.16,3,28.25,28.25,0,0,1-14-1.79c-5.2-2.09-9.83-6.9-9.66-13.59.24-9.33.07-18.67.07-28a6.51,6.51,0,0,0-4.77-6.11,16.74,16.74,0,0,0-8.55-.21c-3.52.81-5.53,3.89-5.57,7.46-.14,14.5-.07,29-.09,43.51,0,4.6-.08,9.2,0,13.81,0,1.31-.39,1.74-1.74,1.72C296,105.69,291.19,105.74,286.25,105.74Z"/><path class="cls-3" d="M48.37,105.28v-12c3.1,0,6.14.11,9.16,0a64.83,64.83,0,0,0,18.32-3.27c5.58-1.92,10.73-4.37,14.81-8.76A21.92,21.92,0,0,0,96,70.35,24.86,24.86,0,0,0,94.6,56.08a19.06,19.06,0,0,0-3-4.79c-5.54-6.86-13.32-9.56-21.51-11.61C61.73,37.59,53.23,38,44.73,38c-2.64,0-3.48,1-3.48,3.59q0,24.57-.07,49.15c0,5.2-2.84,8.62-7.1,11-4,2.25-8.46,2.86-13.06,3.18a26.94,26.94,0,0,1-13-2.36C3.38,100.51,0,96.62,0,91q.06-25.45.1-50.9a4,4,0,0,1,.17-.68c.67,0,1.37-.11,2.08-.11,4.37,0,8.73.07,13.09,0,1.31,0,1.76.35,1.75,1.71-.06,10.37-.06,20.74-.07,31.1,0,5.81-.08,11.61.07,17.41a4.22,4.22,0,0,0,1.54,3,3.91,3.91,0,0,0,4.8-.47,3.57,3.57,0,0,0,.71-2.46c.07-11.63.07-23.27.09-34.91,0-4.84.06-9.68,0-14.51S27,32,30.85,29.52c4.5-2.86,9.59-3.45,14.81-3.36,4.89.09,9.78.07,14.67.16a70.87,70.87,0,0,1,22.81,4.25,80.46,80.46,0,0,1,13.47,6c7.14,4.13,12.51,10,15,18.13,2.9,9.59,2.4,19-2.54,27.84-3.2,5.75-8.09,9.78-13.74,13a70,70,0,0,1-24.57,8.25C63.38,104.9,55.89,104.83,48.37,105.28Z"/><path class="cls-3" d="M430,27.49V46.38q0,12.7,0,25.4c0,11-.08,21.89-.09,32.83,0,1.11-.36,1.46-1.47,1.44q-6.74-.09-13.47,0c-1.22,0-1.66-.34-1.65-1.64.07-12.06.07-24.12.1-36.18q.06-19.95.14-39.9c0-.22,0-.44,0-.82Z"/></g></g></svg>